<svg xmlns="http://www.w3.org/2000/svg" width="49" height="36" viewBox="0 0 49 36"><g transform="translate(-1 -7)"><path d="M44.41,7a5.3,5.3,0,0,0-5.187,4.235H30.646V8.059A1.059,1.059,0,0,0,29.587,7h-8.47a1.059,1.059,0,0,0-1.059,1.059v3.176H11.481a5.294,5.294,0,1,0,0,2.118h8.577v3.176a1.059,1.059,0,0,0,1.059,1.059h8.47a1.059,1.059,0,0,0,1.059-1.059V13.353h8.577A5.294,5.294,0,1,0,44.41,7Z" fill="#666"/><path d="M5.275,31.981H2.059A1.059,1.059,0,0,0,1,33.039v8.47a1.059,1.059,0,0,0,1.059,1.059h8.47a1.059,1.059,0,0,0,1.059-1.059v-8.47a1.059,1.059,0,0,0-1.059-1.059H7.391a17.863,17.863,0,0,1,10.55-15.344v-2.3A19.961,19.961,0,0,0,5.275,31.981Z" transform="translate(0 0.431)" fill="#666"/><path d="M46.882,31.981H43.665A19.961,19.961,0,0,0,31,14.339v2.3A17.864,17.864,0,0,1,41.55,31.981H38.412a1.059,1.059,0,0,0-1.059,1.059v7.47a1.059,1.059,0,0,0,1.059,1.059h8.47a1.059,1.059,0,0,0,1.059-1.059v-7.47A1.059,1.059,0,0,0,46.882,31.981Z" transform="translate(1.764 0.431)" fill="#666"/><rect width="11" height="11" rx="1" transform="translate(39 32)" fill="#a4e251"/><rect width="11" height="11" rx="1" transform="translate(1 32)" fill="#666"/></g></svg>