<svg xmlns="http://www.w3.org/2000/svg" width="59" height="60" viewBox="0 0 59 60"><rect width="59" height="60" transform="translate(0)" fill="#ff13dc" opacity="0"/><path d="M28.939,42.318A18.346,18.346,0,0,1,9.876,36.224a15.6,15.6,0,0,1,7.721-3.5c1.9-.165,1.93-1.693,1.93-3.6a17.337,17.337,0,0,1-4.071-10.346c0-6.259,3.562-10.431,8.69-10.431s8.687,4.182,8.687,10.431A17.337,17.337,0,0,1,28.76,29.115c0,1.906.029,3.434,1.93,3.6a15.276,15.276,0,0,1,6.073,2.306V32.5a5.178,5.178,0,0,1,5.255-5.2h1.313a5.253,5.253,0,0,1,1.842.341A21.338,21.338,0,1,0,29.947,44.815a5.2,5.2,0,0,1-1.009-2.5Z" transform="translate(4.871 5.628)" fill="#666" fill-rule="evenodd"/><path d="M32.378,25.322H25.917v6.539a1.233,1.233,0,0,1-1.3,1.3H23.255a1.273,1.273,0,0,1-1.332-1.321v-6.52H15.345a1.233,1.233,0,0,1-1.3-1.3V22.66a1.233,1.233,0,0,1,1.3-1.3h6.581V14.862a1.257,1.257,0,0,1,1.347-1.291h1.313a1.233,1.233,0,0,1,1.3,1.3V21.4l6.48-.013a1.233,1.233,0,0,1,1.3,1.3l.019,1.332a1.233,1.233,0,0,1-1.315,1.3Z" transform="translate(23.616 23.269)" fill="#e25172" fill-rule="evenodd"/></svg>